<?xml version="1.0" standalone="no"?>
<!DOCTYPE svg PUBLIC "-//W3C//DTD SVG 20010904//EN"
 "http://www.w3.org/TR/2001/REC-SVG-20010904/DTD/svg10.dtd">
<svg version="1.0" xmlns="http://www.w3.org/2000/svg"
 width="512.000000pt" height="512.000000pt" viewBox="0 0 512.000000 512.000000"
 preserveAspectRatio="xMidYMid meet">
<metadata>
Created by potrace 1.11, written by Peter Selinger 2001-2013
</metadata>
<g transform="translate(0.000000,512.000000) scale(0.100000,-0.100000)"
fill="#000000" stroke="none">
<path d="M954 5101 c-149 -43 -263 -161 -298 -311 -14 -57 -16 -301 -16 -2020
0 -1702 2 -1963 15 -2013 40 -153 143 -263 288 -309 50 -15 95 -18 303 -18
l244 0 0 -210 c0 -116 3 -210 8 -210 4 0 123 93 265 206 161 129 263 204 272
200 8 -3 127 -95 264 -206 138 -110 253 -200 256 -200 3 0 5 94 5 210 l0 209
798 3 797 3 72 34 c167 78 254 230 252 440 l0 76 -23 -61 c-47 -127 -150 -226
-274 -264 -62 -19 -95 -20 -843 -20 l-779 0 0 215 0 215 -535 0 -535 0 0 -216
0 -215 -202 3 c-197 3 -204 4 -253 30 -62 32 -130 104 -157 164 -26 60 -27
175 -1 247 25 72 101 147 176 175 l58 22 1485 0 c1659 0 1569 -4 1681 69 104
67 170 165 192 285 15 84 15 3048 0 3132 -32 172 -164 306 -337 343 -38 8
-494 11 -1585 10 -1431 0 -1536 -2 -1593 -18z"/>
</g>
</svg>
